<svg xmlns="http://www.w3.org/2000/svg" width="606" height="547" fill="none"><g filter="url(#a)"><rect width="570" height="511" x="18" y="14" fill="#fff" rx="20"/></g><path fill="#F0F0F0" d="M500 152c24.301 0 44-19.699 44-44 0-24.3-19.699-44-44-44s-44 19.7-44 44c0 24.301 19.699 44 44 44Z"/><g clip-path="url(#b)"><path fill="#3F3D56" d="M527 207.095h-2.29v-62.767a36.315 36.315 0 0 0-10.649-25.688 36.375 36.375 0 0 0-25.71-10.64H355.253a36.377 36.377 0 0 0-25.71 10.64 36.304 36.304 0 0 0-10.649 25.687v344.345a36.31 36.31 0 0 0 10.649 25.688A36.371 36.371 0 0 0 355.252 525h133.097a36.375 36.375 0 0 0 25.71-10.64 36.315 36.315 0 0 0 10.649-25.688V251.773h2.29l.002-44.678Z"/><path fill="#fff" d="M517.295 141.894v349.21a27.547 27.547 0 0 1-8.075 19.477 27.59 27.59 0 0 1-19.492 8.072H353.9a27.594 27.594 0 0 1-19.502-8.067 27.549 27.549 0 0 1-8.083-19.482v-349.21a27.55 27.55 0 0 1 8.083-19.481 27.589 27.589 0 0 1 19.501-8.066h16.476a13.1 13.1 0 0 0 5.974 16.493 13.125 13.125 0 0 0 6.156 1.543h77.439a13.125 13.125 0 0 0 10.867-5.794 13.1 13.1 0 0 0 1.263-12.242h17.649a27.587 27.587 0 0 1 19.493 8.068 27.542 27.542 0 0 1 8.079 19.474v.005Z"/><path fill="#E6E6E6" d="M423.262 281.6a58.338 58.338 0 0 1-41.238-17.047 58.238 58.238 0 0 1-17.097-41.189v-.051c0-.122 0-.251.007-.373.176-31.918 26.346-57.911 58.328-57.911a58.365 58.365 0 0 1 41.25 17.069 58.263 58.263 0 0 1 17.088 41.213 58.26 58.26 0 0 1-17.084 41.214 58.36 58.36 0 0 1-41.248 17.073h-.006v.002Zm0-115.344a57.252 57.252 0 0 0-40.223 16.631 57.158 57.158 0 0 0-16.876 40.092c-.007.131-.007.235-.007.334a57.03 57.03 0 0 0 9.622 31.705 57.094 57.094 0 0 0 25.629 21.02 57.16 57.16 0 0 0 32.999 3.252 57.133 57.133 0 0 0 29.245-15.614 57.053 57.053 0 0 0 15.634-29.216 57.017 57.017 0 0 0-3.246-32.971 57.07 57.07 0 0 0-21.032-25.612 57.144 57.144 0 0 0-31.73-9.621h-.015Zm60.322 176.623h-120.7a2.238 2.238 0 0 1-2.235-2.233v-29.914a2.237 2.237 0 0 1 2.235-2.233h120.7a2.238 2.238 0 0 1 2.235 2.233v29.915a2.237 2.237 0 0 1-2.235 2.233v-.001Zm-120.7-33.487a1.345 1.345 0 0 0-1.341 1.34v29.915a1.34 1.34 0 0 0 1.341 1.34h120.7a1.345 1.345 0 0 0 1.341-1.34v-29.915a1.34 1.34 0 0 0-1.341-1.34h-120.7Z"/><path fill="#E6E6E6" d="M400.211 319.436a1.565 1.565 0 0 0 0 3.127h73.761a1.57 1.57 0 0 0 1.123-.415 1.558 1.558 0 0 0 .5-1.088 1.567 1.567 0 0 0-1.504-1.622l-.068-.001h-73.812v-.001Zm0 9.38a1.56 1.56 0 0 0-1.564 1.563 1.566 1.566 0 0 0 1.564 1.564h73.761a1.571 1.571 0 0 0 1.481-.91 1.551 1.551 0 0 0-.273-1.716 1.582 1.582 0 0 0-1.089-.5l-.068-.001h-73.812Zm83.373 64.088h-120.7a2.238 2.238 0 0 1-2.235-2.233v-29.914a2.235 2.235 0 0 1 2.235-2.233h120.7a2.238 2.238 0 0 1 2.235 2.233v29.915a2.237 2.237 0 0 1-2.235 2.232Zm-120.7-33.487a1.345 1.345 0 0 0-1.341 1.34v29.915a1.34 1.34 0 0 0 1.341 1.34h120.7a1.345 1.345 0 0 0 1.341-1.34v-29.915a1.34 1.34 0 0 0-1.341-1.34h-120.7Z"/><path fill="#E6E6E6" d="M400.211 369.459a1.565 1.565 0 0 0 0 3.127h73.761a1.567 1.567 0 0 0 1.556-1.538 1.568 1.568 0 0 0-1.505-1.588h-73.812v-.001Zm0 9.382a1.565 1.565 0 0 0 0 3.127h73.761a1.567 1.567 0 0 0 1.556-1.538 1.568 1.568 0 0 0-1.505-1.588h-73.812v-.001Zm83.373 64.087h-120.7a2.236 2.236 0 0 1-2.235-2.233v-29.914a2.235 2.235 0 0 1 2.235-2.233h120.7a2.238 2.238 0 0 1 2.235 2.233v29.915a2.237 2.237 0 0 1-2.235 2.233v-.001Zm-120.7-33.487a1.34 1.34 0 0 0-1.341 1.34v29.915a1.34 1.34 0 0 0 1.341 1.34h120.7a1.34 1.34 0 0 0 1.341-1.34v-29.915a1.34 1.34 0 0 0-1.341-1.34h-120.7Z"/><path fill="#E6E6E6" d="M400.211 419.485a1.56 1.56 0 0 0-1.564 1.563 1.562 1.562 0 0 0 1.564 1.563h73.761a1.551 1.551 0 0 0 1.123-.415c.151-.14.273-.307.358-.494a1.551 1.551 0 0 0-.273-1.716 1.582 1.582 0 0 0-1.089-.5l-.068-.001h-73.812Zm0 9.38a1.56 1.56 0 0 0-1.564 1.563 1.566 1.566 0 0 0 1.564 1.563h73.761a1.551 1.551 0 0 0 1.123-.415c.151-.139.273-.307.358-.494a1.551 1.551 0 0 0-.273-1.716 1.582 1.582 0 0 0-1.089-.5l-.068-.001h-73.812Z"/><path fill="#77B2D3" d="M441.695 221.899h-17.013V204.9h-2.835v16.999h-17.013v2.832h17.013v16.999h2.835v-16.999h17.013v-2.832Z"/><path fill="#2F2E41" d="M180.442 435.653s-13.911 15.222-15.898 50.299-2.65 39.048-2.65 39.048h49.681l9.269-23.823 10.601 23.821h47.03s5.299-72.801 0-74.787c-5.299-1.985-98.033-14.558-98.033-14.558Z"/><path fill="#FFB8B8" d="M247.011 256.628c13.17 0 23.846-10.667 23.846-23.826 0-13.158-10.676-23.825-23.846-23.825s-23.846 10.667-23.846 23.825c0 13.159 10.676 23.826 23.846 23.826Zm103.004 179.69-36.432-66.184-21.199-34.415 25.173-11.252 13.91 27.135s18.548 27.135 23.184 49.638c4.636 22.503 9.274 33.092 9.274 33.092l-13.91 1.986Zm-200.711-19.196 54.317-47.652-2.647-38.386h-15.235l-4.639 19.855-43.718 57.579 11.922 8.604Z"/><path fill="#E4E4E4" d="M219.521 268.211s19.673 8.241 34.344-1.836c0 0 35.87 5.809 37.857 7.793 1.988 1.984-1.987 61.548-1.987 61.548l-7.948 33.755s11.261 51.623-5.299 64.86L279.8 452.2s-73.526 5.295-102.672-12.575l5.298-17.87 13.911-56.256-8.611-78.094s6.621-17.87 31.795-19.194Z"/><path fill="#E4E4E4" d="m274.832 277.145 17.222-2.645s8.612 1.324 16.56 17.87c7.949 16.546 16.561 38.386 16.561 38.386l-29.808 13.236-24.509-38.386 3.974-28.461Zm-83.131 6.95-3.974 3.309s-5.299 19.193-5.299 32.43v17.869l23.846 2.647-14.573-56.255Z"/><path fill="#2F2E41" d="M223.171 239.268s-3.241-3.497-2.913-7.875c.216-2.491.057-5-.473-7.443 0 0 1.015-7.166 2.513-11.32s.235-5.599 6.675-7.867c6.439-2.268 2.34-10.468 21.325-3.931a5.196 5.196 0 0 0 5.648 1.155c3.506-1.283 5.618 3.528 5.618 3.528s2.186-1.792 3.413.071c1.227 1.864 7.16-2.383 9.337 11.172 2.177 13.556-5.293 25.644-5.293 25.644s-1.048-21.691-13.378-22.085c-12.33-.394-26.273-5.059-28.003 4.075-1.729 9.134-4.469 14.876-4.469 14.876Z"/><path fill="#FFB8B8" d="M140.616 427.259c5.675 0 10.276-4.597 10.276-10.268s-4.601-10.268-10.276-10.268c-5.676 0-10.277 4.597-10.277 10.268s4.601 10.268 10.277 10.268Z"/><path fill="#fff" d="m66.53 486.341 169.251-33.756-14.144-70.796-169.252 33.754 14.145 70.798Z"/><path fill="#E4E4E4" d="M237.167 453.509 65.606 487.728 51 414.621l171.561-34.217 14.606 73.105ZM67.454 484.958l166.943-33.295-13.684-68.491-166.942 33.296 13.683 68.49Z"/><path fill="#77B2D3" d="m121.715 463.838-.07.029a24.229 24.229 0 0 1-2.273.815c-.194.059-.395.121-.596.175-.327.094-.661.177-.998.255-.144.037-.296.069-.441.1l-.087.018c-.181.039-.361.077-.542.109l-.47.082c-.087.019-.173.031-.258.043a25.013 25.013 0 0 1-20.865-6.356 24.971 24.971 0 0 1-7.921-20.307 24.953 24.953 0 0 1 3.369-10.662 24.983 24.983 0 0 1 18.154-12.083 25.017 25.017 0 0 1 11.145 1.003 24.953 24.953 0 0 0-1.83 35.224 25.005 25.005 0 0 0 10.827 7.041 24.895 24.895 0 0 1-7.143 4.516l-.001-.002Z"/><path fill="#77B2D3" d="M157.444 451.139a24.442 24.442 0 0 0 3.386 1.389 24.864 24.864 0 0 1-11.522 5.889l-.314.067a25.019 25.019 0 0 1-21.318-5.64 24.961 24.961 0 0 1-8.55-20.309 24.965 24.965 0 0 1 10.875-19.168 25.007 25.007 0 0 1 21.832-3.103 24.917 24.917 0 0 0-8.04 21.924 24.925 24.925 0 0 0 13.651 18.951Z"/><path fill="#77B2D3" d="M200.518 422.009c1.029 4.83.6 9.857-1.231 14.444a24.972 24.972 0 0 1-9.056 11.327 25 25 0 0 1-27.766.366 24.968 24.968 0 0 1-9.352-11.083 24.95 24.95 0 0 1 5.057-27.282 25.003 25.003 0 0 1 31.513-3.521 24.977 24.977 0 0 1 10.835 15.749Z"/><path fill="#fff" d="M190.053 444.291c.236 1.105.36 2.231.369 3.362a25.06 25.06 0 0 1-19.125 4.064 16.745 16.745 0 0 1-1.033-3.221c-1.223-5.746.673-11.224 4.359-13.702a7.737 7.737 0 0 1-4.484-2.634 7.725 7.725 0 0 1 4.325-12.517 7.738 7.738 0 0 1 8.708 4.488 7.727 7.727 0 0 1-2.682 9.416c4.378.765 8.34 4.998 9.563 10.744Zm-32.609 6.85.016.075c.21 1.388.305 2.791.285 4.195-2.589 1.814-5.483 2.338-8.75 3.075l-.315.067a24.917 24.917 0 0 1-9.976.089 2.798 2.798 0 0 1-.116-.291 15.98 15.98 0 0 1-.916-2.93c-1.223-5.745.673-11.223 4.359-13.702a7.73 7.73 0 0 1-6.285-7.509 7.734 7.734 0 0 1 7.929-7.804 24.921 24.921 0 0 0 3.033 14.508 24.953 24.953 0 0 0 10.737 10.228l-.001-.001Zm-31.353 7.093c.199.995.302 2.007.309 3.022a24.918 24.918 0 0 1-6.44 3.241c-.193.065-.393.126-.587.184-.194.059-.395.121-.596.175-.327.095-.661.178-.998.255-.069.021-.144.037-.214.052l-.314.066a17.34 17.34 0 0 1-.542.11l-.47.081a24.791 24.791 0 0 1-8.964-.1.096.096 0 0 1-.014-.04 1.903 1.903 0 0 1-.103-.252 15.976 15.976 0 0 1-.915-2.93c-1.223-5.745.672-11.223 4.359-13.701a7.738 7.738 0 0 1-4.485-2.634 7.724 7.724 0 0 1 5.6-12.677 24.927 24.927 0 0 0 3.16 14.871 24.955 24.955 0 0 0 11.215 10.276l-.001.001Z"/><path fill="#77B2D3" d="M383.588 330.176a8.341 8.341 0 0 1-.169 1.683 12.52 12.52 0 0 1-9.778 0 8.415 8.415 0 0 1-.17-1.683c0-2.937 1.497-5.419 3.559-6.249a3.86 3.86 0 0 1-.95-6.553 3.87 3.87 0 0 1 6.241 2.226 3.86 3.86 0 0 1-2.292 4.327c2.063.83 3.559 3.312 3.559 6.249Zm0 51.039a8.349 8.349 0 0 1-.169 1.683 12.538 12.538 0 0 1-9.778 0 8.422 8.422 0 0 1-.17-1.683c0-2.937 1.497-5.42 3.559-6.249a3.868 3.868 0 0 1-2.292-4.327 3.87 3.87 0 0 1 7.583 0 3.864 3.864 0 0 1-2.292 4.327c2.063.829 3.559 3.312 3.559 6.249Zm0 50.023a8.349 8.349 0 0 1-.169 1.683 12.538 12.538 0 0 1-9.778 0 8.422 8.422 0 0 1-.17-1.683c0-2.937 1.497-5.42 3.559-6.249a3.868 3.868 0 0 1-2.292-4.327 3.87 3.87 0 0 1 7.583 0 3.864 3.864 0 0 1-2.292 4.327c2.063.829 3.559 3.312 3.559 6.249Z"/><path fill="#FFB8B8" d="M357.601 448.381c5.189 0 9.396-4.203 9.396-9.388 0-5.184-4.207-9.387-9.396-9.387-5.189 0-9.396 4.203-9.396 9.387 0 5.185 4.207 9.388 9.396 9.388Z"/></g><path fill="#F0F0F0" d="M156.182 154.65c18.177 0 32.913-14.736 32.913-32.913 0-18.177-14.736-32.913-32.913-32.913-18.177 0-32.913 14.736-32.913 32.913 0 18.177 14.736 32.913 32.913 32.913ZM64.5 198c9.113 0 16.5-7.387 16.5-16.5S73.613 165 64.5 165 48 172.387 48 181.5 55.387 198 64.5 198Z"/><path fill="#3F3D56" d="m142.068 115.361-14.694-14.508a7.686 7.686 0 0 0-5.441-2.233h-.051a7.688 7.688 0 0 0-5.46 2.298 18.061 18.061 0 0 0-.316 25.065c.155.168.316.329.477.491a17.61 17.61 0 0 0 2.943 2.355 17.864 17.864 0 0 0 9.751 2.859h.11a17.97 17.97 0 0 0 12.746-5.369 7.76 7.76 0 0 0-.065-10.958Zm-.852 10.048a16.837 16.837 0 0 1-21.141 2.246 17.332 17.332 0 0 1-2.588-2.098 16.782 16.782 0 0 1-4.989-11.834 16.782 16.782 0 0 1 4.841-11.895 6.388 6.388 0 0 1 4.556-1.917h.038a6.39 6.39 0 0 1 4.531 1.859l14.694 14.514a6.455 6.455 0 0 1 .058 9.125ZM93.854 67.747 79.16 53.233A7.697 7.697 0 0 0 73.72 51h-.046a7.71 7.71 0 0 0-5.466 2.304A18.12 18.12 0 0 0 65.162 74.6l.007.007a17.785 17.785 0 0 0 2.794 3.827c.123.142.265.284.407.426a17.964 17.964 0 0 0 12.694 5.214h.116a17.975 17.975 0 0 0 12.745-5.376 7.743 7.743 0 0 0-.07-10.951Zm-.851 10.048a16.686 16.686 0 0 1-11.83 4.989h-.11a16.78 16.78 0 0 1-11.932-28.57 6.458 6.458 0 0 1 9.125-.058l14.695 14.507a6.466 6.466 0 0 1 .052 9.132Z"/><path fill="#77B2D3" d="m143.008 119.922-16.201-16.001a5.63 5.63 0 0 0-7.955.05 14.19 14.19 0 0 0-2.994 15.498 14.195 14.195 0 0 0 23.197 4.455l3.953-4.002ZM94.797 72.305l-16.2-16a5.632 5.632 0 0 0-7.956.05 14.198 14.198 0 1 0 20.203 19.953l3.953-4.003Z"/><path fill="#3F3D56" d="m125.206 129.888-.388 1.019c-1.82-.69-3.584-1.383-5.292-2.078-30.254-12.345-44.696-26.795-54.357-54.222l-.007-.007c-.458-1.29-.903-2.611-1.336-3.962l1.02-.329c.341 1.3.84 2.552 1.484 3.73.53 1.504 1.074 2.969 1.633 4.395 9.08 23.149 22.471 36.378 48.143 47.549 1.291.562 2.614 1.119 3.969 1.672a16.848 16.848 0 0 0 5.131 2.233Z"/><path fill="#3F3D56" d="m78.89 82.9-.907.918 33.518 33.105.908-.919L78.89 82.899Z"/><defs><clipPath id="b"><path fill="#fff" d="M51 108h476v417H51z"/></clipPath><filter id="a" width="606" height="547" x="0" y="0" color-interpolation-filters="sRGB" filterUnits="userSpaceOnUse"><feFlood flood-opacity="0" result="BackgroundImageFix"/><feColorMatrix in="SourceAlpha" result="hardAlpha" values="0 0 0 0 0 0 0 0 0 0 0 0 0 0 0 0 0 0 127 0"/><feOffset dy="4"/><feGaussianBlur stdDeviation="9"/><feComposite in2="hardAlpha" operator="out"/><feColorMatrix values="0 0 0 0 0 0 0 0 0 0 0 0 0 0 0 0 0 0 0.08 0"/><feBlend in2="BackgroundImageFix" result="effect1_dropShadow_16_805"/><feBlend in="SourceGraphic" in2="effect1_dropShadow_16_805" result="shape"/></filter></defs></svg>