<svg xmlns="http://www.w3.org/2000/svg" width="573" height="325" fill="none"><g clip-path="url(#a)"><path fill="#E6E6E6" d="M496.972 159.422H126.741a20.26 20.26 0 0 1-14.321-5.956 20.363 20.363 0 0 1-5.941-14.356V20.312a20.363 20.363 0 0 1 5.941-14.356A20.26 20.26 0 0 1 126.741 0h370.231a20.257 20.257 0 0 1 14.32 5.956 20.36 20.36 0 0 1 5.942 14.357V139.11a20.36 20.36 0 0 1-5.942 14.356 20.256 20.256 0 0 1-14.32 5.956Z"/><path fill="#fff" d="M127.355 8.002a12.277 12.277 0 0 0-8.679 3.61 12.342 12.342 0 0 0-3.601 8.7V139.11a12.343 12.343 0 0 0 3.601 8.701 12.273 12.273 0 0 0 8.679 3.609h370.231a12.273 12.273 0 0 0 8.679-3.609 12.343 12.343 0 0 0 3.601-8.701V20.312a12.342 12.342 0 0 0-3.601-8.7 12.277 12.277 0 0 0-8.679-3.61H127.355Z"/><path fill="#CCC" d="M173.798 57.7c-2.66 0-5.26-.792-7.472-2.273a13.477 13.477 0 0 1-4.954-6.052 13.516 13.516 0 0 1-.766-7.79 13.495 13.495 0 0 1 3.681-6.905 13.44 13.44 0 0 1 6.887-3.69 13.417 13.417 0 0 1 7.771.767 13.458 13.458 0 0 1 6.037 4.966 13.508 13.508 0 0 1 2.267 7.492 13.519 13.519 0 0 1-3.944 9.53 13.45 13.45 0 0 1-9.507 3.954Zm0-25.171c-2.305 0-4.559.685-6.476 1.97a11.706 11.706 0 0 0-1.766 17.98 11.63 11.63 0 0 0 12.703 2.533 11.665 11.665 0 0 0 5.232-4.304 11.706 11.706 0 0 0 1.964-6.493 11.714 11.714 0 0 0-3.418-8.26 11.654 11.654 0 0 0-8.239-3.426Z"/><path fill="#CCC" d="M173.5 41.155h-.025l-1.419.768-.213-.844 1.783-.957h.942v8.186H173.5v-7.153Z"/><path fill="#E6E6E6" d="M155.436 79.468a1.577 1.577 0 0 0 1.503-.95 1.59 1.59 0 0 0-.332-1.751 1.575 1.575 0 0 0-2.451.274 1.587 1.587 0 0 0 .219 1.964c.282.284.662.45 1.061.463ZM155.436 89.356a1.577 1.577 0 0 0 1.503-.95 1.59 1.59 0 0 0-.332-1.75 1.575 1.575 0 0 0-2.451.274 1.587 1.587 0 0 0 .219 1.964c.282.283.662.448 1.061.462ZM155.436 99.245a1.577 1.577 0 0 0 1.503-.951 1.59 1.59 0 0 0-.332-1.75 1.575 1.575 0 0 0-2.451.274 1.587 1.587 0 0 0 .219 1.964c.282.284.662.449 1.061.463ZM192.787 78.785h-28.695a.898.898 0 0 1 0-1.798h28.695a.899.899 0 0 1 0 1.798ZM192.787 88.674h-28.695a.896.896 0 0 1-.897-.898.901.901 0 0 1 .896-.9h28.696a.895.895 0 0 1 .897.898.901.901 0 0 1-.896.9h-.001ZM192.787 98.562h-28.695a.898.898 0 0 1 0-1.798h28.695a.897.897 0 0 1 .829 1.242.902.902 0 0 1-.828.556h-.001Z"/><path fill="#CCC" d="M257.11 55.853c-2.66 0-5.26-.791-7.472-2.273a13.476 13.476 0 0 1-4.954-6.051 13.516 13.516 0 0 1 2.916-14.695 13.42 13.42 0 0 1 14.658-2.923 13.461 13.461 0 0 1 6.036 4.966 13.508 13.508 0 0 1-1.673 17.026 13.446 13.446 0 0 1-9.511 3.95Zm0-25.171c-2.305 0-4.559.685-6.476 1.97a11.677 11.677 0 0 0-4.293 5.244 11.723 11.723 0 0 0-.664 6.752c.45 2.267 1.56 4.35 3.191 5.984a11.63 11.63 0 0 0 12.703 2.533 11.665 11.665 0 0 0 5.232-4.304 11.706 11.706 0 0 0 1.964-6.493 11.71 11.71 0 0 0-3.418-8.26 11.655 11.655 0 0 0-8.239-3.426Z"/><path fill="#CCC" d="M254.731 46.53v-.68l.866-.844c2.086-1.989 3.028-3.048 3.041-4.281a1.467 1.467 0 0 0-.977-1.53 1.452 1.452 0 0 0-.643-.069 2.776 2.776 0 0 0-1.734.692l-.352-.78a3.578 3.578 0 0 1 2.311-.832 2.294 2.294 0 0 1 2.331 1.425c.123.303.181.629.169.955 0 1.511-1.093 2.733-2.814 4.395l-.653.605v.024h3.668v.92h-5.213Z"/><path fill="#fff" d="M292.722 128.009h-71.223a5.527 5.527 0 0 1-3.905-1.624 5.552 5.552 0 0 1-1.62-3.916V79.998a5.55 5.55 0 0 1 1.62-3.916 5.524 5.524 0 0 1 3.905-1.624h71.223a5.524 5.524 0 0 1 3.905 1.624 5.55 5.55 0 0 1 1.62 3.916v42.471a5.552 5.552 0 0 1-1.62 3.916 5.527 5.527 0 0 1-3.905 1.624Z"/><path fill="#E6E6E6" d="M281.321 85.951H232.9a.897.897 0 0 1-.636-1.534.896.896 0 0 1 .634-.264h48.423a.901.901 0 0 1 .636 1.534.895.895 0 0 1-.634.264h-.002ZM281.321 94.042H232.9a.897.897 0 0 1-.636-1.534.896.896 0 0 1 .634-.264h48.423a.895.895 0 0 1 .897.899.901.901 0 0 1-.897.899ZM281.321 102.132H232.9a.898.898 0 0 1-.002-1.798h48.423a.897.897 0 0 1 .898.898.899.899 0 0 1-.896.9h-.002ZM281.321 110.223H232.9a.901.901 0 0 1-.634-1.533.894.894 0 0 1 .632-.265h48.423a.9.9 0 0 1 0 1.798ZM281.321 118.313H232.9a.902.902 0 0 1-.634-1.534.894.894 0 0 1 .634-.264h48.421a.897.897 0 0 1 .898.898.899.899 0 0 1-.896.9h-.002Z"/><path fill="#E6E6E6" d="M292.722 128.009h-71.223a5.527 5.527 0 0 1-3.905-1.624 5.552 5.552 0 0 1-1.62-3.916V79.998a5.55 5.55 0 0 1 1.62-3.916 5.524 5.524 0 0 1 3.905-1.624h71.223a5.524 5.524 0 0 1 3.905 1.624 5.55 5.55 0 0 1 1.62 3.916v42.471a5.552 5.552 0 0 1-1.62 3.916 5.527 5.527 0 0 1-3.905 1.624Zm-71.223-52.32a4.297 4.297 0 0 0-3.037 1.263 4.317 4.317 0 0 0-1.26 3.046v42.471a4.315 4.315 0 0 0 1.26 3.045 4.295 4.295 0 0 0 3.037 1.264h71.223a4.295 4.295 0 0 0 3.037-1.264 4.315 4.315 0 0 0 1.26-3.045V79.998a4.317 4.317 0 0 0-1.26-3.046 4.297 4.297 0 0 0-3.037-1.263h-71.223Z"/><path fill="#CCC" d="M347.226 55.853c-2.66 0-5.261-.791-7.473-2.273a13.476 13.476 0 0 1-4.954-6.051 13.516 13.516 0 0 1 2.916-14.695 13.44 13.44 0 0 1 6.887-3.69 13.418 13.418 0 0 1 7.771.767 13.456 13.456 0 0 1 6.036 4.966 13.508 13.508 0 0 1-1.672 17.026 13.435 13.435 0 0 1-9.511 3.95Zm0-25.171c-2.306 0-4.56.685-6.477 1.97a11.677 11.677 0 0 0-4.293 5.244 11.714 11.714 0 0 0 2.527 12.736 11.63 11.63 0 0 0 12.704 2.533 11.663 11.663 0 0 0 5.231-4.304 11.707 11.707 0 0 0 1.965-6.493 11.715 11.715 0 0 0-3.419-8.26 11.654 11.654 0 0 0-8.238-3.426Z"/><path fill="#CCC" d="M344.977 45.189a3.7 3.7 0 0 0 1.809.516c1.42 0 1.86-.907 1.846-1.586-.012-1.147-1.042-1.638-2.109-1.638h-.616v-.83h.616c.804 0 1.821-.416 1.821-1.386 0-.655-.415-1.234-1.432-1.234a2.979 2.979 0 0 0-1.632.542l-.289-.806a3.865 3.865 0 0 1 2.134-.63c1.608 0 2.337.957 2.337 1.952a2.032 2.032 0 0 1-1.508 1.926v.026a2.128 2.128 0 0 1 1.821 2.103c0 1.31-1.017 2.456-2.976 2.456a4.135 4.135 0 0 1-2.123-.555l.301-.856Z"/><path fill="#E6E6E6" d="M327.351 116.146a1.581 1.581 0 0 0 1.171-2.701 1.572 1.572 0 0 0-1.745-.332 1.576 1.576 0 0 0-.949 1.506 1.584 1.584 0 0 0 1.523 1.527ZM364.702 115.463h-28.694a.901.901 0 0 1-.635-.263.9.9 0 0 1 .635-1.535h28.694a.9.9 0 0 1 .829.554.902.902 0 0 1-.828 1.244h-.001ZM372.399 103.388h-50.346a4.3 4.3 0 0 1-3.038-1.264 4.315 4.315 0 0 1-1.26-3.045V78.766a4.316 4.316 0 0 1 1.26-3.045 4.298 4.298 0 0 1 3.038-1.263h50.346a4.298 4.298 0 0 1 3.038 1.263 4.32 4.32 0 0 1 1.26 3.045V99.08a4.32 4.32 0 0 1-1.26 3.045 4.3 4.3 0 0 1-3.038 1.264Zm-50.346-27.7a3.07 3.07 0 0 0-2.17.903 3.083 3.083 0 0 0-.9 2.175V99.08c.001.816.324 1.598.9 2.175a3.07 3.07 0 0 0 2.17.903h50.346a3.072 3.072 0 0 0 2.17-.903c.575-.577.899-1.36.9-2.175V78.766a3.087 3.087 0 0 0-.9-2.175 3.071 3.071 0 0 0-2.17-.902h-50.346Z"/><path fill="#E6E6E6" d="m374.933 75.791-55.839 25.232.505 1.122 55.839-25.232-.505-1.122Z"/><path fill="#E6E6E6" d="m319.832 75.478-.512 1.12 55.53 25.544.512-1.119-55.53-25.545Z"/><path fill="#CCC" d="M413.765 89.753a.904.904 0 0 0-.131-.197l-6.725-6.742a.904.904 0 0 0-.635-.264.895.895 0 0 0-.897.899.904.904 0 0 0 .264.636l5.194 5.207h-22.942a.895.895 0 0 0-.897.9.897.897 0 0 0 .897.898h22.942l-4.746 4.758a.887.887 0 0 0-.264.636.905.905 0 0 0 .554.832.894.894 0 0 0 .978-.196l6.276-6.292.001-.001a.89.89 0 0 0 .131-1.074Z"/><path fill="#3F3D56" d="M471.028 72.084h-.42v-11.54a6.691 6.691 0 0 0-1.951-4.724 6.67 6.67 0 0 0-4.712-1.956h-24.39a6.643 6.643 0 0 0-4.711 1.956 6.677 6.677 0 0 0-1.951 4.723v63.316a6.69 6.69 0 0 0 1.951 4.723 6.657 6.657 0 0 0 4.711 1.956h24.39a6.66 6.66 0 0 0 6.156-4.123 6.693 6.693 0 0 0 .507-2.556v-43.56h.42v-8.215Z"/><path fill="#fff" d="M469.19 60.59v63.222a4.993 4.993 0 0 1-1.457 3.527 4.97 4.97 0 0 1-3.519 1.462h-24.507a4.966 4.966 0 0 1-3.518-1.462 4.99 4.99 0 0 1-1.458-3.527V60.59c0-1.323.524-2.592 1.458-3.528a4.968 4.968 0 0 1 3.518-1.46h2.973a2.374 2.374 0 0 0 1.078 2.985c.342.183.724.279 1.111.28h13.973a2.362 2.362 0 0 0 1.961-1.05 2.381 2.381 0 0 0 .228-2.216h3.183c1.32 0 2.585.526 3.519 1.461a4.995 4.995 0 0 1 1.457 3.528Z"/><path fill="#77B2D3" d="M147.988 133.632a2.708 2.708 0 0 1-.504-2.318 64.168 64.168 0 0 0 0-29.734 2.706 2.706 0 0 1 1.434-3.07 2.646 2.646 0 0 1 1.164-.265h24.883a2.68 2.68 0 0 1 1.735.641c.484.413.806.986.909 1.615a105.055 105.055 0 0 1 0 31.892 2.694 2.694 0 0 1-.909 1.614 2.68 2.68 0 0 1-1.735.642h-24.883a2.653 2.653 0 0 1-2.094-1.017Z"/><path fill="#fff" d="M170.163 111.677h-13.108a1.847 1.847 0 0 1-1.842-1.847v-.784a1.847 1.847 0 0 1 1.842-1.847h13.108a1.844 1.844 0 0 1 1.842 1.847v.784a1.849 1.849 0 0 1-1.842 1.847ZM170.163 119.4h-13.108a1.843 1.843 0 0 1-1.302-.542 1.853 1.853 0 0 1-.54-1.305v-.784a1.842 1.842 0 0 1 1.842-1.846h13.108c.489 0 .957.195 1.302.541.345.346.54.816.54 1.305v.784a1.849 1.849 0 0 1-1.842 1.847Z"/><path fill="#77B2D3" d="M378.125 156.364a103.41 103.41 0 0 1 0-31.377 2.654 2.654 0 0 1 .895-1.588 2.638 2.638 0 0 1 1.707-.632h24.481a2.613 2.613 0 0 1 2.06 1.001 2.672 2.672 0 0 1 .496 2.281 63.126 63.126 0 0 0-.001 29.253 2.662 2.662 0 0 1-1.41 3.02 2.612 2.612 0 0 1-1.145.261h-24.481a2.637 2.637 0 0 1-1.707-.631 2.657 2.657 0 0 1-.895-1.588Z"/><path fill="#fff" d="M398.121 138.717h-12.847a1.847 1.847 0 0 1-1.842-1.847v-.722a1.842 1.842 0 0 1 1.842-1.846h12.847c.488 0 .957.195 1.302.541.345.347.539.816.54 1.305v.722a1.845 1.845 0 0 1-1.842 1.847Z"/><path fill="#CCC" d="M22.64 224.691a103.067 103.067 0 0 1 19.308-24.695 2.64 2.64 0 0 1 3.413-.138l19.268 15.14a2.612 2.612 0 0 1 1.006 2.062 2.665 2.665 0 0 1-1.013 2.101 62.96 62.96 0 0 0-18.001 23.024 2.662 2.662 0 0 1-1.793 1.488 2.603 2.603 0 0 1-2.238-.486l-19.267-15.14a2.649 2.649 0 0 1-.682-3.356Z"/><path fill="#fff" d="m49.353 222.293-10.11-7.944a1.853 1.853 0 0 1-.314-2.593l.444-.568a1.843 1.843 0 0 1 2.586-.314l10.11 7.945a1.85 1.85 0 0 1 .314 2.593l-.444.567a1.839 1.839 0 0 1-2.586.314ZM44.678 228.274l-10.111-7.945a1.848 1.848 0 0 1-.314-2.593l.444-.567a1.843 1.843 0 0 1 2.586-.315l10.111 7.945a1.853 1.853 0 0 1 .314 2.593l-.444.568a1.843 1.843 0 0 1-2.586.314Z"/><path fill="#CCC" d="M543.287 232.69a103.345 103.345 0 0 1 0-31.377 2.648 2.648 0 0 1 2.601-2.22h24.481a2.606 2.606 0 0 1 2.06 1.001 2.672 2.672 0 0 1 .496 2.281 63.14 63.14 0 0 0 0 29.253 2.673 2.673 0 0 1-.496 2.28 2.606 2.606 0 0 1-2.06 1.001h-24.481a2.637 2.637 0 0 1-2.601-2.219Z"/><path fill="#fff" d="M563.282 215.042h-12.846c-.489 0-.957-.195-1.302-.541a1.85 1.85 0 0 1-.54-1.305v-.722c0-.489.195-.959.54-1.305a1.838 1.838 0 0 1 1.302-.541h12.846a1.846 1.846 0 0 1 1.842 1.846v.722a1.846 1.846 0 0 1-1.842 1.846Z"/><path fill="#A0616A" d="M550.477 203.987a6.593 6.593 0 0 0 .413-4.767 6.575 6.575 0 0 0-2.921-3.784 5.71 5.71 0 0 0-.892-.401l-.504-22.35-8.905 6.574 1.844 20.216a6.521 6.521 0 0 0 2.998 7.151 5.688 5.688 0 0 0 6.585-.746 5.698 5.698 0 0 0 1.382-1.893Z"/><path fill="#3F3D56" d="m546.725 194.063-6.383.386a2.708 2.708 0 0 1-1.855-.674 2.72 2.72 0 0 1-.909-1.756l-5.3-39.977-8.565-24.385a8.469 8.469 0 0 1 .222-6.239 7.587 7.587 0 0 1 1.738-2.524 7.547 7.547 0 0 1 2.595-1.627c3.9-1.421 8.171.829 9.519 5.016l8.711 27.958 2.686 40.83a2.91 2.91 0 0 1-.645 2.048 2.583 2.583 0 0 1-1.113.799 2.48 2.48 0 0 1-.701.145Z"/><path fill="#A0616A" d="m509.513 316.937-7.527-.001-3.581-29.107h11.109l-.001 29.108Z"/><path fill="#2F2E41" d="M511.432 324.251h-24.271v-.308a9.493 9.493 0 0 1 2.767-6.697 9.437 9.437 0 0 1 6.68-2.774h.001l14.824.001-.001 9.778Z"/><path fill="#A0616A" d="m531.616 316.937-7.527-.001-3.581-29.107h11.109l-.001 29.108Z"/><path fill="#2F2E41" d="M533.535 324.251h-24.271v-.308a9.474 9.474 0 0 1 5.832-8.75 9.426 9.426 0 0 1 3.615-.721h.001l14.824.001-.001 9.778ZM536.668 199.304l-1.798 106.914a2.459 2.459 0 0 1-2.678 2.41l-8.808-.803a2.45 2.45 0 0 1-1.526-.722 2.467 2.467 0 0 1-.7-1.539l-5.157-66.69a.614.614 0 0 0-1.226.024l-2.577 68.217a2.462 2.462 0 0 1-2.454 2.369h-9.447a2.453 2.453 0 0 1-1.683-.669 2.466 2.466 0 0 1-.768-1.643l-6.613-108.484 39.295-9.848 6.14 10.464Z"/><path fill="#A0616A" d="M508.166 98.913c8.328 0 15.08-6.769 15.08-15.118 0-8.35-6.752-15.118-15.08-15.118-8.329 0-15.08 6.768-15.08 15.118 0 8.35 6.751 15.118 15.08 15.118Z"/><path fill="#3F3D56" d="M489.887 202.484a2.75 2.75 0 0 1-.837-1.948l-1.018-72.905a17.578 17.578 0 0 1 3.179-10.376 17.5 17.5 0 0 1 8.66-6.515c1.413-6.426 8.932-7.23 13.316-7.134a6.812 6.812 0 0 1 5.512 3.03l3.142 4.725 6.926 4.07a17.549 17.549 0 0 1 7.22 8.133 17.61 17.61 0 0 1 1.051 10.836l-1.067 4.862a112.028 112.028 0 0 0 1.043 52.111l2.145 8.201a2.778 2.778 0 0 1-1.598 3.255 2.751 2.751 0 0 1-1.286.209l-2.492-.192a2.766 2.766 0 0 1-2.537-2.485l-.413-4.135a.305.305 0 0 0-.305-.277.303.303 0 0 0-.206.08.306.306 0 0 0-.1.197l-.399 4.003a2.763 2.763 0 0 1-2.707 2.494l-35.261.544-.044.001a2.744 2.744 0 0 1-1.924-.784Z"/><path fill="#2F2E41" d="M509.346 92.51c.061 2.136 1.541 3.373 3.358 4.492 1.817 1.12 3.941 1.605 6.022 2.073a1.84 1.84 0 0 0 2.705-1.615l1.908-7.278a46.087 46.087 0 0 0 1.47-7.101c.459-4.622-.633-9.595-3.851-12.937-3.218-3.341-8.799-4.529-12.655-1.954-4.577-5.86-25.495 7.087-20.335 11.162.918.725 2.321-.193 3.487-.282 1.165-.088 2.47.117 3.211 1.024.967 1.184.545 2.948.944 4.426a4.132 4.132 0 0 0 3.604 2.868 4.112 4.112 0 0 0 1.605-.192 14.185 14.185 0 0 0 2.701-1.74c.894-.598 2.023-1.039 3.029-.662 1.327.496 1.798 2.124 1.917 3.538.203 1.41.496 2.805.88 4.177Z"/><path fill="#000" d="m505.823 133.027-2.455 30.161-12.894 31.392 19.033-30.776-3.684-30.777Z" opacity=".2"/><path fill="#A0616A" d="M487.459 206.271a6.194 6.194 0 0 0 1.781-7.329 6.183 6.183 0 0 0-1.586-2.161l8.214-20.396-11.176 2.263-6.087 19.022a6.237 6.237 0 0 0 .616 8.242 6.199 6.199 0 0 0 8.238.359Z"/><path fill="#3F3D56" d="m487.219 197.275-6.326-2.286a2.78 2.78 0 0 1-1.728-3.336l10.436-38.298 1.591-34.612a7.898 7.898 0 0 1 2.601-5.506 7.855 7.855 0 0 1 11.191.68 7.891 7.891 0 0 1 1.918 5.781l-2.841 37.9-13.298 37.989a2.776 2.776 0 0 1-1.093 1.399 2.76 2.76 0 0 1-2.451.289Z"/><path fill="#FFB8B8" d="m31.533 308.196 6.76 3.321 15.995-24.555-9.976-4.902-12.779 26.136Z"/><path fill="#2F2E41" d="m30.89 305.137 13.312 6.541a9.477 9.477 0 0 1 5.27 9.101 9.493 9.493 0 0 1-.946 3.572l-.135.276-21.793-10.71 4.293-8.78Z"/><path fill="#FFB8B8" d="M98.515 319.774h7.527l3.581-29.108-11.11.001.002 29.107Z"/><path fill="#2F2E41" d="M96.594 314.848h14.825a9.435 9.435 0 0 1 6.68 2.773 9.489 9.489 0 0 1 2.767 6.697v.308l-24.271.001v-9.779Z"/><path fill="#FFB8B8" d="M82.346 118.894c8.328 0 15.08-6.769 15.08-15.119 0-8.349-6.752-15.118-15.08-15.118-8.329 0-15.08 6.769-15.08 15.118 0 8.35 6.751 15.119 15.08 15.119Z"/><path fill="#2F2E41" d="M97.363 310.174a2.771 2.771 0 0 1-2.757-2.65l-5.83-77.779a.926.926 0 0 0-.715-.869.917.917 0 0 0-1.02.471l-37.289 71.366a2.776 2.776 0 0 1-3.683 1.192l-10.395-5.21a2.78 2.78 0 0 1-1.242-3.703l22.25-45.2 14.738-33.857c5.688-11.233 11.728-17.022 18.466-17.697 6.912-.692 14.294 4.073 22.571 14.568l.067.085-.001.109-1.228 95.012a2.761 2.761 0 0 1-.718 1.866 2.744 2.744 0 0 1-1.787.888l-11.157 1.395c-.09.008-.18.013-.27.013Z"/><path fill="#FFB8B8" d="M66.43 219.403a6.61 6.61 0 0 0 3.064-4.677 6.63 6.63 0 0 0-1.61-5.357l2.274-60.233-11.051 1.38-.932 58.598a6.66 6.66 0 0 0-.43 8.821 6.625 6.625 0 0 0 8.685 1.468Z"/><path fill="#2F2E41" d="m73.421 159.785-14.841-1.691a2.951 2.951 0 0 1-2.11-1.275 2.966 2.966 0 0 1-.414-2.434l3.831-14.426a8.239 8.239 0 0 1 3.069-5.489 8.198 8.198 0 0 1 11.522 1.347 8.249 8.249 0 0 1 1.726 6.049l.507 14.872a2.97 2.97 0 0 1-2.036 2.919 2.96 2.96 0 0 1-1.254.128Z"/><path fill="#FFB8B8" d="M137.353 121.868c-.075.332-.125.67-.147 1.01l-26.375 15.254-6.411-3.7-6.834 8.969 10.714 7.656a4.898 4.898 0 0 0 5.893-.144l27.197-21.51a6.44 6.44 0 0 0 7.099-1.818 6.47 6.47 0 0 0-1.924-9.992 6.434 6.434 0 0 0-7.263.961 6.47 6.47 0 0 0-1.949 3.314Z"/><path fill="#2F2E41" d="m109.949 138.854-8.524 11.076a2.762 2.762 0 0 1-3.199.886 2.765 2.765 0 0 1-.979-.657l-9.65-10.046a7.706 7.706 0 0 1-1.342-10.782 7.66 7.66 0 0 1 10.752-1.371l12.104 6.785a2.766 2.766 0 0 1 1.342 3.042 2.756 2.756 0 0 1-.504 1.067Z"/><path fill="#77B2D3" d="m116.903 215.516-16.365-79.914a14.992 14.992 0 0 0-6.183-9.341 14.922 14.922 0 0 0-10.917-2.427l-5.458.912a14.62 14.62 0 0 0-9.504 5.945 20.541 20.541 0 0 0-3.053 17.426l9.033 32.411-6.704 34.723a2.466 2.466 0 0 0 .63 2.165 2.449 2.449 0 0 0 2.125.741 187.146 187.146 0 0 1 15.242-1.543l3.443-13.312 1.4 13.1c7.805-.219 16.278.165 23.267 1.985a2.449 2.449 0 0 0 2.319-.586 2.469 2.469 0 0 0 .725-2.285Z"/><path fill="#2F2E41" d="M99.713 91.012c-.9-5.249-5.103-9.6-10.11-11.38-5.005-1.78-10.65-1.2-15.553.85a24.405 24.405 0 0 0-12.255 11 12.689 12.689 0 0 1-1.834-1.012c-2.903-1.937-5.259-4.696-8.4-6.214-5.538-2.678-12.233-.898-17.622 2.068-5.39 2.966-10.167 7.063-15.86 9.39C12.386 98.043 5.122 98.157.81 93.763a15.876 15.876 0 0 0-.249 9.548c.9 3.133 2.741 5.911 5.273 7.956a15.767 15.767 0 0 0 18.129 1.191c6.238-3.809 9.683-11.796 16.68-13.898 3.87-1.164 8.028-.227 11.941.788a47.166 47.166 0 0 0 7.036 1.459 17.437 17.437 0 0 0 4.54 11.625c4.828 5.096 12.405 6.454 19.415 6.371l.147-.149c-2.147-3.221-3.84-7.687-1.477-10.751 2.332-3.025 6.933-2.579 10.505-3.918 4.976-1.864 7.862-7.724 6.962-12.972Z"/><path fill="#CCC" d="M126.429 325H22.052a.615.615 0 0 1 0-1.231h104.377a.614.614 0 0 1 .434 1.051.614.614 0 0 1-.434.18ZM558.059 325H453.682a.618.618 0 0 1-.435-.18.618.618 0 0 1 .435-1.051h104.377a.616.616 0 0 1 0 1.231Z"/></g><defs><clipPath id="a"><path fill="#fff" d="M0 0h573v325H0z"/></clipPath></defs></svg>